HIERARCHY
ROOT Hips
{
	OFFSET 0.000000 0.000000 0.000000
	CHANNELS 6 Xposition Yposition Zposition Zrotation Yrotation Xrotation 
	JOINT LHipJoint
	{
		OFFSET 0.000000 0.000000 0.000000
		CHANNELS 3 Zrotation Yrotation Xrotation
		JOINT LeftUpLeg
		{
			OFFSET 1.363060 -1.794630 0.839290
			CHANNELS 3 Zrotation Yrotation Xrotation
			JOINT LeftLeg
			{
				OFFSET 2.448110 -6.726130 0.000000
				CHANNELS 3 Zrotation Yrotation Xrotation
				JOINT LeftFoot
				{
					OFFSET 2.562200 -7.039590 0.000000
					CHANNELS 3 Zrotation Yrotation Xrotation
					JOINT LeftToeBase
					{
						OFFSET 0.157640 -0.433110 2.322550
						CHANNELS 3 Zrotation Yrotation Xrotation
						End Site
						{
							OFFSET 0.000000 0.000000 0.000000
						}
					}
				}
			}
		}
	}
	JOINT RHipJoint
	{
		OFFSET 0.000000 0.000000 0.000000
		CHANNELS 3 Zrotation Yrotation Xrotation
		JOINT RightUpLeg
		{
			OFFSET -1.305520 -1.794630 0.839290
			CHANNELS 3 Zrotation Yrotation Xrotation
			JOINT RightLeg
			{
				OFFSET -2.542530 -6.985550 0.000000
				CHANNELS 3 Zrotation Yrotation Xrotation
				JOINT RightFoot
				{
					OFFSET -2.568260 -7.056230 0.000000
					CHANNELS 3 Zrotation Yrotation Xrotation
					JOINT RightToeBase
					{
						OFFSET -0.164730 -0.452590 2.363150
						CHANNELS 3 Zrotation Yrotation Xrotation
						End Site
						{
							OFFSET 0.000000 0.000000 0.000000
						}
					}
				}
			}
		}
	}
	JOINT LowerBack
	{
		OFFSET 0.000000 0.000000 0.000000
		CHANNELS 3 Zrotation Yrotation Xrotation
		JOINT Spine
		{
			OFFSET 0.028270 2.035590 -0.193380
			CHANNELS 3 Zrotation Yrotation Xrotation
			JOINT Spine1
			{
				OFFSET 0.056720 2.048850 -0.042750
				CHANNELS 3 Zrotation Yrotation Xrotation
				JOINT Neck
				{
					OFFSET 0.000000 0.000000 0.000000
					CHANNELS 3 Zrotation Yrotation Xrotation
					JOINT Neck1
					{
						OFFSET -0.054170 1.746240 0.172020
						CHANNELS 3 Zrotation Yrotation Xrotation
						JOINT Head
						{
							OFFSET 0.104070 1.761360 -0.123970
							CHANNELS 3 Zrotation Yrotation Xrotation
							End Site
							{
								OFFSET 0.000000 0.000000 0.000000
							}
						}
					}
				}
				JOINT LeftShoulder
				{
					OFFSET 0.000000 0.000000 0.000000
					CHANNELS 3 Zrotation Yrotation Xrotation
					JOINT LeftArm
					{
						OFFSET 3.362410 1.200890 -0.311210
						CHANNELS 3 Zrotation Yrotation Xrotation
						JOINT LeftForeArm
						{
							OFFSET 4.983000 -0.000000 -0.000000
							CHANNELS 3 Zrotation Yrotation Xrotation
							JOINT LeftHand
							{
								OFFSET 3.483560 -0.000000 -0.000000
								CHANNELS 3 Zrotation Yrotation Xrotation
								JOINT LeftFingerBase
								{
									OFFSET 0.000000 0.000000 0.000000
									CHANNELS 3 Zrotation Yrotation Xrotation
									JOINT LeftHandIndex1
									{
										OFFSET 0.715260 -0.000000 -0.000000
										CHANNELS 3 Zrotation Yrotation Xrotation
										End Site
										{
											OFFSET 0.000000 0.000000 0.000000
										}
									}
								}
								JOINT LThumb
								{
									OFFSET 0.000000 0.000000 0.000000
									CHANNELS 3 Zrotation Yrotation Xrotation
									End Site
									{
										OFFSET 0.000000 0.000000 0.000000
									}
								}
							}
						}
					}
				}
				JOINT RightShoulder
				{
					OFFSET 0.000000 0.000000 0.000000
					CHANNELS 3 Zrotation Yrotation Xrotation
					JOINT RightArm
					{
						OFFSET -3.136600 1.374050 -0.404650
						CHANNELS 3 Zrotation Yrotation Xrotation
						JOINT RightForeArm
						{
							OFFSET -5.241900 -0.000000 -0.000000
							CHANNELS 3 Zrotation Yrotation Xrotation
							JOINT RightHand
							{
								OFFSET -3.444170 -0.000000 -0.000000
								CHANNELS 3 Zrotation Yrotation Xrotation
								JOINT RightFingerBase
								{
									OFFSET 0.000000 0.000000 0.000000
									CHANNELS 3 Zrotation Yrotation Xrotation
									JOINT RightHandIndex1
									{
										OFFSET -0.622530 -0.000000 -0.000000
										CHANNELS 3 Zrotation Yrotation Xrotation
										End Site
										{
											OFFSET 0.000000 0.000000 0.000000
										}
									}
								}
								JOINT RThumb
								{
									OFFSET 0.000000 0.000000 0.000000
									CHANNELS 3 Zrotation Yrotation Xrotation
									End Site
									{
										OFFSET 0.000000 0.000000 0.000000
									}
								}
							}
						}
					}
				}
			}
		}
	}
}
MOTION
Frames: 4
Frame Time: 0.008333
10.623639 16.707377 11.029739 179.278078 -4.060980 -145.129315 10.712978 0.311777 -2.545916 -12.963403 -27.282089 -53.971693 5.781582 20.643890 51.820730 0.265618 -12.030318 -26.295298 2.022300 -8.912300 -25.521400 -13.996082 -1.879511 -0.809738 22.464653 23.982604 -50.674201 -4.315511 -20.167943 48.359504 -3.354285 3.357152 -36.670620 -2.687400 10.170900 -29.531900 -3.677389 -0.233723 -14.464190 1.121151 -0.570905 -5.747282 -1.775612 -0.755374 6.953609 -4.482274 11.790726 -6.043579 30.297738 5.978538 16.510275 7.097800 3.981200 3.478000 17.405769 -2.850717 0.707633 -103.323606 -3.676425 23.175606 16.098596 -19.835389 -3.731850 -1.512295 0.692055 1.959578 20.303713 -12.388190 -5.131600 -7.125000 0.000000 0.000000 -3.774300 16.084100 2.586600 -11.725575 0.455637 -0.148500 97.648674 -1.275224 27.113500 -27.741665 39.231098 -11.997969 0.300536 3.268459 -7.591338 -12.294239 -47.924662 10.189200 7.125000 0.000000 0.000000 58.923300 -75.409400 -45.321300 
10.628121 16.592488 11.048213 179.246103 -4.413135 -145.083416 10.743507 0.344840 -2.576168 -12.768193 -27.102584 -55.343780 6.381133 21.166037 53.819781 0.288977 -12.250440 -26.504486 2.532000 -9.895900 -28.640400 -13.978700 -1.890418 -0.824056 22.312744 23.817403 -51.831818 -4.906133 -20.765838 50.426756 -3.537242 3.476324 -37.368419 -2.655600 10.115500 -29.351700 -3.604921 -0.142839 -14.142261 1.081473 -0.445368 -5.739385 -1.937253 -0.689699 6.755005 -3.757568 12.064463 -5.787697 29.795575 6.379960 16.530428 6.784900 4.199900 3.475300 17.443816 -2.877390 0.724525 -103.234871 -3.823684 23.372454 16.135034 -19.855338 -3.740898 -1.539614 0.680689 2.081109 20.656261 -12.177030 -5.140000 -7.125000 0.000000 0.000000 -3.501200 16.289500 2.383100 -11.741747 0.523766 -0.128505 97.550422 -1.266989 27.699451 -28.337133 39.739863 -12.407057 0.294694 3.305674 -7.930228 -12.827429 -48.892509 10.769700 7.125000 0.000000 0.000000 62.250500 -76.008000 -48.880000 
10.629433 16.475304 11.062971 179.145769 -4.734893 -145.131302 10.771626 0.380106 -2.598671 -12.693466 -27.014401 -56.584762 7.001941 21.654587 55.825569 0.282689 -12.645020 -26.686346 2.903800 -10.537700 -30.736200 -13.954293 -1.895174 -0.846638 22.072699 23.585752 -52.927197 -5.550274 -21.345058 52.567253 -3.754979 3.866972 -38.134332 -2.533400 9.898400 -28.648400 -3.576919 -0.069098 -13.705686 1.018709 -0.322080 -5.718213 -2.149320 -0.628075 6.548029 -3.030906 12.293865 -5.629720 29.333667 6.719421 16.518498 6.496400 4.387900 3.496900 17.489178 -2.898770 0.735977 -103.099504 -3.980744 23.535699 16.231156 -19.964756 -3.782400 -1.539756 0.643541 1.908101 20.692805 -11.877520 -5.017600 -7.125000 0.000000 0.000000 -3.463300 16.639700 2.330800 -11.773174 0.598064 -0.110478 97.528901 -1.276953 28.288927 -29.052741 40.335647 -12.892825 0.240305 3.338230 -8.075673 -12.327311 -50.172404 10.513600 7.125000 0.000000 0.000000 67.659300 -76.215300 -54.006000 
10.635117 16.358120 11.082538 178.970056 -5.325225 -145.181707 10.794783 0.417890 -2.612607 -12.410813 -27.230619 -57.900735 7.663298 22.120114 57.887712 0.068195 -13.840773 -26.399544 2.372300 -9.602000 -27.697200 -13.931526 -1.907572 -0.887381 21.934685 23.050703 -54.028565 -6.197453 -21.875974 54.640981 -3.938833 4.059558 -38.756553 -2.455300 9.756100 -28.190400 -3.601980 -0.095161 -13.260783 1.004184 -0.311016 -5.665535 -2.236869 -0.618800 6.465645 -2.229270 12.562222 -5.434273 28.788287 7.123967 16.504256 6.158500 4.611300 3.516900 17.545029 -2.930111 0.753518 -103.126637 -4.268590 23.529461 16.401638 -20.172520 -3.856702 -1.529344 0.548847 1.517605 20.588906 -11.157438 -4.671700 -7.125000 0.000000 0.000000 -3.515100 17.507000 2.299200 -11.781941 0.680369 -0.086061 97.506617 -1.138578 28.695317 -29.627253 40.788094 -13.282085 0.270957 3.292895 -7.860085 -12.437563 -49.613983 10.531200 7.125000 0.000000 0.000000 65.221700 -76.086200 -51.638500 
